<?xml version="1.0" standalone="no"?><!DOCTYPE svg PUBLIC "-//W3C//DTD SVG 1.1//EN" "http://www.w3.org/Graphics/SVG/1.1/DTD/svg11.dtd"><svg t="1551429998618" class="icon" style="" viewBox="0 0 1024 1024" version="1.1" xmlns="http://www.w3.org/2000/svg" p-id="1511" data-spm-anchor-id="a313x.7781069.0.i10" xmlns:xlink="http://www.w3.org/1999/xlink" width="200" height="200"><defs><style type="text/css"></style></defs><path d="M569.6 844.8s-6.4 0-6.4-6.4L441.6 614.4c0-6.4 0-6.4 6.4-12.8l108.8-57.6c6.4 0 6.4 0 12.8 6.4l121.6 224v6.4s0 6.4-6.4 6.4l-115.2 57.6c6.4 0 6.4 0 0 0zM460.8 614.4L576 819.2l96-51.2-115.2-204.8-96 51.2z" fill="#83c6c2" p-id="1512" data-spm-anchor-id="a313x.7781069.0.i12" class="selected"></path><path d="M531.2 774.4s-6.4 0-6.4-6.4 0-6.4 6.4-12.8l108.8-57.6c6.4 0 6.4 0 12.8 6.4 0 6.4 0 6.4-6.4 12.8l-115.2 57.6c6.4-6.4 6.4 0 0 0zM492.8 691.2s-6.4 0-6.4-6.4 0-6.4 6.4-12.8l108.8-57.6c6.4 0 6.4 0 12.8 6.4 0 6.4 0 6.4-6.4 12.8l-115.2 57.6z" fill="#83c6c2" p-id="1513" data-spm-anchor-id="a313x.7781069.0.i11" class="selected"></path><path d="M627.2 812.8s-6.4 0-6.4-6.4L499.2 588.8c0-6.4 0-6.4 6.4-12.8 0 0 6.4 0 6.4 6.4l115.2 217.6c6.4 0 6.4 6.4 0 12.8z" fill="#83c6c2" p-id="1514" data-spm-anchor-id="a313x.7781069.0.i9" class="selected"></path><path d="M377.6 480c-6.4 0-6.4 0-6.4-6.4L249.6 249.6v-6.4s0-6.4 6.4-6.4l108.8-57.6c6.4 0 6.4 0 12.8 6.4l121.6 224c0 6.4 0 6.4-6.4 12.8l-115.2 57.6zM268.8 249.6L384 460.8l96-51.2-121.6-204.8-89.6 44.8z" fill="#83c6c2" p-id="1515" data-spm-anchor-id="a313x.7781069.0.i13" class="selected"></path><path d="M339.2 409.6s-6.4 0-6.4-6.4 0-6.4 6.4-12.8L448 332.8c6.4 0 6.4 0 12.8 6.4 0 6.4 0 6.4-6.4 12.8l-115.2 57.6zM294.4 332.8s-6.4 0-6.4-6.4 0-6.4 6.4-12.8L403.2 256c6.4 0 6.4 0 12.8 6.4 0 6.4 0 6.4-6.4 12.8l-115.2 57.6c6.4 0 6.4 0 0 0z" fill="#83c6c2" p-id="1516" data-spm-anchor-id="a313x.7781069.0.i18" class="selected"></path><path d="M428.8 448s-6.4 0-6.4-6.4L307.2 224c0-6.4 0-6.4 6.4-12.8 6.4 0 6.4 0 12.8 6.4l115.2 217.6c0 6.4-6.4 12.8-12.8 12.8 6.4 0 0 0 0 0z" fill="#83c6c2" p-id="1517" data-spm-anchor-id="a313x.7781069.0.i17" class="selected"></path><path d="M467.2 588.8c-25.6 0-51.2-12.8-64-38.4-6.4-19.2-6.4-38.4 0-57.6 6.4-19.2 19.2-32 32-44.8h32c25.6 0 51.2 12.8 64 38.4 6.4 19.2 12.8 38.4 6.4 51.2-6.4 19.2-19.2 32-32 38.4-12.8 6.4-25.6 12.8-38.4 12.8z m0-128c-6.4 0-19.2 0-25.6 6.4-6.4 6.4-19.2 19.2-25.6 32 0 12.8 0 32 6.4 38.4 12.8 19.2 25.6 32 44.8 32 6.4 0 19.2 0 25.6-6.4 12.8-6.4 19.2-19.2 25.6-32 6.4-12.8 0-25.6-6.4-38.4-6.4-19.2-25.6-32-44.8-32z" fill="#83c6c2" p-id="1518" data-spm-anchor-id="a313x.7781069.0.i14" class="selected"></path><path d="M684.8 505.6c-6.4 0-12.8-6.4-6.4-12.8 12.8-25.6 12.8-57.6-6.4-83.2-12.8-25.6-38.4-44.8-70.4-51.2-6.4 0-6.4-6.4-6.4-12.8s6.4-6.4 12.8-6.4c38.4 6.4 64 25.6 83.2 57.6 19.2 32 19.2 64 6.4 96-6.4 6.4-6.4 12.8-12.8 12.8z" fill="#FDD000" p-id="1519"></path><path d="M736 550.4s-6.4 0 0 0c-6.4-6.4-12.8-12.8-6.4-12.8 38.4-44.8 38.4-115.2 12.8-166.4-32-57.6-89.6-89.6-153.6-83.2-6.4 0-6.4 0-6.4-6.4s0-6.4 6.4-6.4c70.4-6.4 134.4 25.6 166.4 89.6 32 57.6 25.6 128-12.8 185.6h-6.4z" fill="#FDD000" p-id="1520"></path><path d="M576 512c-19.2 0-38.4-12.8-44.8-25.6-6.4-12.8-6.4-32-6.4-44.8 6.4-12.8 12.8-25.6 25.6-32h6.4c19.2 0 44.8 32 51.2 57.6 6.4 25.6 0 32-6.4 32-6.4 6.4-19.2 12.8-25.6 12.8z m-12.8-83.2c-12.8 6.4-19.2 12.8-19.2 19.2v25.6c12.8 19.2 32 25.6 51.2 12.8v-12.8c-6.4-19.2-25.6-44.8-32-44.8z" fill="#83c6c2" p-id="1521" data-spm-anchor-id="a313x.7781069.0.i15" class="selected"></path><path d="M595.2 460.8s-6.4 0-6.4-6.4 0-6.4 6.4-12.8l32-19.2c6.4 0 6.4 0 12.8 6.4 0 6.4 0 6.4-6.4 12.8l-38.4 19.2z" fill="#83c6c2" p-id="1522" data-spm-anchor-id="a313x.7781069.0.i16" class="selected"></path></svg>